<svg xmlns="http://www.w3.org/2000/svg" width="1000" height="210" viewBox="0 0 1000 210">
<defs>
 <linearGradient id="grad" x1="0" x2="1"><stop stop-color="#A78BFA"/><stop offset="1" stop-color="#10B981"/></linearGradient>
 <filter id="glow"><feGaussianBlur stdDeviation="3" result="b"/><feMerge><feMergeNode in="b"/><feMergeNode in="SourceGraphic"/></feMerge></filter>
</defs>
<rect width="1000" height="210" rx="18" fill="#0A101F" stroke="#273449"/>
<text x="30" y="38" fill="#E0E7FF" font-family="Arial,sans-serif" font-size="18" font-weight="700">TECHNOLOGY FOCUS</text>
<text x="30" y="60" fill="#94A3B8" font-family="Arial,sans-serif" font-size="12">Languages detected across your public repositories</text><text x="30" y="90" fill="#E0E7FF" font-family="Arial,sans-serif" font-size="13" font-weight="700">C++</text><rect x="155" y="78" width="610" height="14" rx="7" fill="#182235"/><rect x="155" y="78" width="443.1" height="14" rx="7" fill="#f34b7d"/><text x="790" y="90" fill="#94A3B8" font-family="Arial,sans-serif" font-size="12">72.6%</text><text x="30" y="115" fill="#E0E7FF" font-family="Arial,sans-serif" font-size="13" font-weight="700">HTML</text><rect x="155" y="103" width="610" height="14" rx="7" fill="#182235"/><rect x="155" y="103" width="83.0" height="14" rx="7" fill="#e34c26"/><text x="790" y="115" fill="#94A3B8" font-family="Arial,sans-serif" font-size="12">13.6%</text><text x="30" y="140" fill="#E0E7FF" font-family="Arial,sans-serif" font-size="13" font-weight="700">Python</text><rect x="155" y="128" width="610" height="14" rx="7" fill="#182235"/><rect x="155" y="128" width="66.3" height="14" rx="7" fill="#3572A5"/><text x="790" y="140" fill="#94A3B8" font-family="Arial,sans-serif" font-size="12">10.9%</text><text x="30" y="165" fill="#E0E7FF" font-family="Arial,sans-serif" font-size="13" font-weight="700">JavaScript</text><rect x="155" y="153" width="610" height="14" rx="7" fill="#182235"/><rect x="155" y="153" width="14.3" height="14" rx="7" fill="#f1e05a"/><text x="790" y="165" fill="#94A3B8" font-family="Arial,sans-serif" font-size="12">2.3%</text><text x="30" y="190" fill="#E0E7FF" font-family="Arial,sans-serif" font-size="13" font-weight="700">CSS</text><rect x="155" y="178" width="610" height="14" rx="7" fill="#182235"/><rect x="155" y="178" width="3.4" height="14" rx="7" fill="#663399"/><text x="790" y="190" fill="#94A3B8" font-family="Arial,sans-serif" font-size="12">0.5%</text></svg>