<svg xmlns="http://www.w3.org/2000/svg" width="900" height="220" viewBox="0 0 900 220" role="img" aria-label="Now playing Learn To Meow by WENGIE">
<defs>
  <linearGradient id="bg" x1="0" x2="1" y1="0" y2="1">
    <stop offset="0" stop-color="#0b1020"/>
    <stop offset="0.55" stop-color="#15102a"/>
    <stop offset="1" stop-color="#071b17"/>
  </linearGradient>
  <linearGradient id="line" x1="0" x2="1">
    <stop offset="0" stop-color="#8B5CF6"/>
    <stop offset="0.5" stop-color="#EC4899"/>
    <stop offset="1" stop-color="#1DB954"/>
  </linearGradient>
  <filter id="glow" x="-100%" y="-100%" width="300%" height="300%">
    <feGaussianBlur stdDeviation="5" result="b"/>
    <feMerge><feMergeNode in="b"/><feMergeNode in="SourceGraphic"/></feMerge>
  </filter>
</defs>
<rect x="1" y="1" width="898" height="218" rx="28" fill="url(#bg)" stroke="#24283b"/>
<circle cx="88" cy="110" r="52" fill="#1DB954" opacity=".14" filter="url(#glow)"/>
<circle cx="88" cy="110" r="43" fill="#1DB954"/>
<path d="M65 99c15-7 34-6 47 1M69 111c12-5 27-4 38 1M73 122c9-3 19-2 27 1" fill="none" stroke="#071b17" stroke-width="6" stroke-linecap="round"/>
<text x="158" y="78" fill="#9CA3AF" font-family="ui-monospace, SFMono-Regular, Menlo, monospace" font-size="14" letter-spacing="3">CURRENTLY LISTENING</text>
<text x="158" y="116" fill="#F9FAFB" font-family="Arial, Helvetica, sans-serif" font-size="30" font-weight="700">Learn To Meow</text>
<text x="158" y="145" fill="#B8B9C8" font-family="Arial, Helvetica, sans-serif" font-size="16">WENGIE · Xiaofengfeng · Xiaopanpan</text>
<text x="158" y="175" fill="#1DB954" font-family="ui-monospace, SFMono-Regular, Menlo, monospace" font-size="12" letter-spacing="2">PLAYING ON SPOTIFY</text>
<g transform="translate(680 75)" fill="url(#line)" filter="url(#glow)">
  <rect x="0" y="35" width="6" height="28" rx="3"><animate attributeName="height" values="28;55;18;42;28" dur="1.2s" repeatCount="indefinite"/><animate attributeName="y" values="35;21;40;28;35" dur="1.2s" repeatCount="indefinite"/></rect>
  <rect x="15" y="20" width="6" height="58" rx="3"><animate attributeName="height" values="58;24;48;34;58" dur="1.05s" repeatCount="indefinite"/><animate attributeName="y" values="20;37;25;32;20" dur="1.05s" repeatCount="indefinite"/></rect>
  <rect x="30" y="5" width="6" height="88" rx="3"><animate attributeName="height" values="88;45;70;28;88" dur="1.35s" repeatCount="indefinite"/><animate attributeName="y" values="5;26;14;35;5" dur="1.35s" repeatCount="indefinite"/></rect>
  <rect x="45" y="28" width="6" height="42" rx="3"><animate attributeName="height" values="42;70;26;54;42" dur=".95s" repeatCount="indefinite"/><animate attributeName="y" values="28;14;36;22;28" dur=".95s" repeatCount="indefinite"/></rect>
  <rect x="60" y="14" width="6" height="70" rx="3"><animate attributeName="height" values="70;30;60;40;70" dur="1.15s" repeatCount="indefinite"/><animate attributeName="y" values="14;34;19;29;14" dur="1.15s" repeatCount="indefinite"/></rect>
  <rect x="75" y="38" width="6" height="22" rx="3"><animate attributeName="height" values="22;52;16;38;22" dur="1.25s" repeatCount="indefinite"/><animate attributeName="y" values="38;23;41;30;38" dur="1.25s" repeatCount="indefinite"/></rect>
</g>
<line x1="158" y1="190" x2="810" y2="190" stroke="url(#line)" stroke-width="2" opacity=".6"/>
<circle cx="158" cy="190" r="4" fill="#1DB954"><animate attributeName="cx" values="158;810;158" dur="5s" repeatCount="indefinite"/></circle>
</svg>